<?xml version="1.0" standalone="no"?><!DOCTYPE svg PUBLIC "-//W3C//DTD SVG 1.1//EN" "http://www.w3.org/Graphics/SVG/1.1/DTD/svg11.dtd"><svg id="canvas" width="180" height="180" version="1.1" xmlns="http://www.w3.org/2000/svg" xmlns:xlink="http://www.w3.org/1999/xlink" style="display:block;height:180px;min-height:auto;min-width:auto;width:180px;perspective-origin:90px 90px;transform-origin:90px 90px;">
        <defs id="SvgjsDefs1155" style="height:auto;overflow-x:visible;overflow-y:visible;width:auto;perspective-origin:0px 0px;transform-origin:0px 0px;"/>
        <g id="SvgjsG1156" featurekey="root" fill="#ffffff" transform="matrix(1,0,0,1,0,0)" style="height:auto;overflow-x:visible;overflow-y:visible;width:auto;perspective-origin:0px 0px;transform:matrix(1, 0, 0, 1, 0, 0);transform-origin:0px 0px;fill:rgb(255, 255, 255);"/>
        <g id="SvgjsG1157" featurekey="container1" fill="#009bdf" transform="matrix(3.5999999999999996,0,0,3.5999999999999996,0,0)" style="height:auto;overflow-x:visible;overflow-y:visible;width:auto;perspective-origin:0px 0px;transform:matrix(3.6, 0, 0, 3.6, 0, 0);transform-origin:0px 0px;fill:rgb(0, 155, 223);">
            <circle cx="25" cy="25" r="25" style="height:auto;overflow-x:visible;overflow-y:visible;width:auto;perspective-origin:0px 0px;transform-origin:0px 0px;fill:rgb(0, 155, 223);cx:25px;cy:25px;r:25px;"/>
        </g>
        <g id="SvgjsG1158" featurekey="symbol1" fill="#ffffff" transform="matrix(1.1544057296825887,0,0,1.1544057296825887,32.279709662625734,26.99046293279756)" style="height:auto;overflow-x:visible;overflow-y:visible;width:auto;perspective-origin:0px 0px;transform:matrix(1.15441, 0, 0, 1.15441, 32.2797, 26.9905);transform-origin:0px 0px;fill:rgb(255, 255, 255);">
            <path d="M11.2999153,46.6962891l2.8703251-2.5197525l12.401556,46.2429123  c0.1971989,0.9093018,0.9969444,1.5994873,1.9610233,1.5994873h11.5470333c1.1064987,0,1.9938889-0.8983459,1.9938889-2.0048447  V59.6894379c0-1.3256073,0.6354179-2.4978371,0.76688-2.4978371h14.3297157c0.1205101,0,0.7559242,1.1722298,0.7559242,2.4978371  v30.3246536c0,1.1064987,0.8983459,2.0048447,2.0048447,2.0048447H71.467186c0.8873901,0,1.6980896-0.5915909,1.928154-1.4899368  l12.4344254-46.3524628l2.8703232,2.5197525c1.9719849,1.7419128,4.6122437-1.2598763,2.6402664-2.9908371L51.331089,8.4837179  c-0.7449684-0.6573267-1.8843346-0.6792374-2.6512146-0.0109558L8.6596546,43.705452  C6.687675,45.4364128,9.3279362,48.4382019,11.2999153,46.6962891z M29.6940975,30.5151062l20.3113842-17.8683205  l32.4828758,28.582737L69.9334259,88.0092468h-8.0084267v-28.319809c0-3.0456123-1.6761818-6.4965744-4.7546616-6.4965744  H42.8406219c-3.0894318,0-4.7656136,3.4509621-4.7656136,6.4965744v28.319809h-8.0084267L17.522604,41.2295227  L29.6940975,30.5151062z" style="height:auto;overflow-x:visible;overflow-y:visible;width:auto;perspective-origin:0px 0px;transform-origin:0px 0px;fill:rgb(255, 255, 255);d:path('M 11.2999 46.6963 l 2.87033 -2.51975 l 12.4016 46.2429 c 0.197199 0.909302 0.996944 1.59949 1.96102 1.59949 h 11.547 c 1.1065 0 1.99389 -0.898346 1.99389 -2.00484 V 59.6894 c 0 -1.32561 0.635418 -2.49784 0.76688 -2.49784 h 14.3297 c 0.12051 0 0.755924 1.17223 0.755924 2.49784 v 30.3247 c 0 1.1065 0.898346 2.00484 2.00484 2.00484 H 71.4672 c 0.88739 0 1.69809 -0.591591 1.92815 -1.48994 l 12.4344 -46.3525 l 2.87032 2.51975 c 1.97198 1.74191 4.61224 -1.25988 2.64027 -2.99084 L 51.3311 8.48372 c -0.744968 -0.657327 -1.88433 -0.679237 -2.65121 -0.0109558 L 8.65965 43.7055 C 6.68767 45.4364 9.32794 48.4382 11.2999 46.6963 Z M 29.6941 30.5151 l 20.3114 -17.8683 l 32.4829 28.5827 L 69.9334 88.0092 h -8.00843 v -28.3198 c 0 -3.04561 -1.67618 -6.49657 -4.75466 -6.49657 H 42.8406 c -3.08943 0 -4.76561 3.45096 -4.76561 6.49657 v 28.3198 h -8.00843 L 17.5226 41.2295 L 29.6941 30.5151 Z');"/>
        </g>
        <g id="SvgjsG1159" featurekey="text1" fill="#ffffff" transform="matrix(1,0,0,1,90,143)" style="height:auto;overflow-x:visible;overflow-y:visible;width:auto;perspective-origin:0px 0px;transform:matrix(1, 0, 0, 1, 90, 143);transform-origin:0px 0px;fill:rgb(255, 255, 255);">
            <path d="" style="height:auto;overflow-x:visible;overflow-y:visible;width:auto;perspective-origin:0px 0px;transform-origin:0px 0px;fill:rgb(255, 255, 255);"/>
        </g>
    </svg>